<mxfile host="app.diagrams.net" modified="2024-04-27T15:09:52.458Z" agent="Mozilla/5.0 (Windows NT 10.0; Win64; x64) AppleWebKit/537.36 (KHTML, like Gecko) Chrome/124.0.0.0 Safari/537.36" version="24.3.1" etag="YQVvFPwrj1ZZQXrLFCwc" type="github">
  <diagram name="PÃ¡gina-1" id="f7ZPNnd1a3LwlpICATiw">
    <mxGraphModel>
      <root>
        <mxCell id="0" />
        <mxCell id="1" parent="0" />
      </root>
    </mxGraphModel>
  </diagram>
</mxfile>
